<?xml version="1.0" encoding="utf-8"?>
<!-- Generator: Adobe Illustrator 22.0.1, SVG Export Plug-In . SVG Version: 6.00 Build 0)  -->
<svg version="1.1" id="Layer_1" xmlns="http://www.w3.org/2000/svg" xmlns:xlink="http://www.w3.org/1999/xlink" x="0px" y="0px"
	 viewBox="0 0 87.2 14.4" style="enable-background:new 0 0 87.2 14.4;" xml:space="preserve">
<style type="text/css">
	.st0{fill:#1C75BC;}
	.st1{fill:#27AAE1;}
</style>
<path class="st0" d="M11.3,6.6L7.6,13L0.3,0.3h14.7l-1.2,2.1H3.9l3.7,6.3l2.4-4.2L11.3,6.6z M18.6,10.9l1.2,2.1h-9.8l7.3-12.7
	l1.2,2.1l-4.9,8.5H18.6z M25.3,3.4c-1.8,0-3.4,1.4-3.4,3.8c0,2.4,1.6,3.8,3.4,3.8c1.8,0,3.5-1.4,3.5-3.8C28.7,4.8,27.1,3.4,25.3,3.4
	z M25.3,9.7c-1.1,0-1.7-1-1.7-2.4c0-1.5,0.6-2.4,1.7-2.4s1.7,1,1.7,2.4C27,8.7,26.3,9.7,25.3,9.7z M34.2,3.4c-0.8,0-1.6,0.4-2.2,0.9
	h-0.1l-0.1-0.8h-1.4v10.1h1.7v-2.3l0-1.2c0.6,0.5,1.2,0.8,1.9,0.8c1.6,0,3.1-1.4,3.1-3.9C37,4.9,36,3.4,34.2,3.4z M33.6,9.7
	c-0.4,0-0.9-0.2-1.5-0.6V5.7c0.6-0.5,1.1-0.8,1.6-0.8c1.1,0,1.6,0.9,1.6,2.3C35.3,8.8,34.5,9.7,33.6,9.7z M41.6,3.4
	c-1.7,0-3.3,1.4-3.3,3.8c0,2.4,1.6,3.8,3.6,3.8c0.9,0,1.8-0.3,2.5-0.8l-0.6-1.1c-0.5,0.3-1.1,0.5-1.7,0.5c-1.2,0-2-0.7-2.1-2h4.6
	c0-0.2,0.1-0.5,0.1-0.8C44.6,4.9,43.6,3.4,41.6,3.4z M39.9,6.6c0.1-1.2,0.9-1.8,1.7-1.8c1,0,1.5,0.7,1.5,1.8H39.9z M47.8,4.9
	L47.8,4.9l-0.2-1.3h-1.4v7.3h1.7V6.4c0.4-1.1,1.1-1.5,1.7-1.5c0.3,0,0.5,0,0.8,0.1l0.3-1.5c-0.2-0.1-0.5-0.1-0.8-0.1
	C49.1,3.4,48.3,4,47.8,4.9z M54.2,3.4c-1.2,0-2.2,0.4-3,0.9l0.6,1.1c0.7-0.4,1.3-0.7,2-0.7c1,0,1.3,0.7,1.3,1.4
	c-3,0.3-4.3,1.1-4.3,2.7c0,1.3,0.9,2.1,2.1,2.1c0.9,0,1.6-0.4,2.2-1h0.1l0.1,0.8H57V6.6C57,4.6,56.1,3.4,54.2,3.4z M55.3,8.9
	c-0.5,0.5-1,0.8-1.6,0.8c-0.6,0-1-0.3-1-0.9c0-0.7,0.7-1.2,2.6-1.5V8.9z M61.7,9.7c-0.7,0-1-0.4-1-1.3V5h1.8V3.6h-1.8v-2h-1.4
	l-0.2,2L58,3.7V5h1v3.5c0,1.6,0.6,2.6,2.3,2.6c0.6,0,1.1-0.1,1.5-0.3l-0.3-1.3C62.3,9.6,62,9.7,61.7,9.7z M66.7,3.4
	c-1.7,0-3.3,1.4-3.3,3.8c0,2.4,1.6,3.8,3.6,3.8c0.9,0,1.8-0.3,2.5-0.8l-0.6-1.1c-0.5,0.3-1.1,0.5-1.7,0.5c-1.2,0-2-0.7-2.1-2h4.6
	c0-0.2,0.1-0.5,0.1-0.8C69.7,4.9,68.7,3.4,66.7,3.4z M65,6.6c0.1-1.2,0.9-1.8,1.7-1.8c1,0,1.5,0.7,1.5,1.8C68.3,6.6,65,6.6,65,6.6z"
	/>
<path class="st1" d="M75.6,3c-0.1,0.6-0.2,1.2-0.2,1.8h0C75.2,4.1,75.1,3.5,75,3l-0.6-2.6h-1.1L72.7,3c-0.1,0.6-0.2,1.2-0.3,1.8h0
	c-0.1-0.6-0.2-1.2-0.2-1.8l-0.4-2.6h-1.3l1,5.6H73l0.5-2.6c0.1-0.4,0.2-0.9,0.2-1.3h0C73.9,2.5,73.9,3,74,3.4L74.6,6h1.6l1-5.6H76
	L75.6,3z M79.2,3.6h1.9V2.5h-1.9V1.4h2.3V0.3h-3.5V6h3.6V4.9h-2.3V3.6z M85.9,3L85.9,3c0.5-0.2,0.7-0.8,0.7-1.3
	c0-1.1-0.9-1.4-2.1-1.4h-1.9V6h2.1c1.2,0,2.2-0.5,2.2-1.7C86.9,3.6,86.5,3.1,85.9,3z M83.9,1.3h0.6c0.6,0,0.9,0.2,0.9,0.6
	c0,0.4-0.3,0.7-0.9,0.7h-0.6C83.9,2.6,83.9,1.3,83.9,1.3z M84.7,5h-0.7V3.5h0.7c0.7,0,1,0.2,1,0.7C85.7,4.7,85.3,5,84.7,5z"/>
</svg>
